<?xml version="1.0" encoding="iso-8859-1"?>
<!-- Generator: Adobe Illustrator 21.1.0, SVG Export Plug-In . SVG Version: 6.00 Build 0)  -->
<svg version="1.1" id="Layer_1" xmlns="http://www.w3.org/2000/svg" xmlns:xlink="http://www.w3.org/1999/xlink" x="0px" y="0px"
	 viewBox="0 0 100.75 100.749" style="enable-background:new 0 0 100.75 100.749;" xml:space="preserve">
<path d="M8.584,61.554h8.627c0.828,0,1.5-0.672,1.5-1.5s-0.672-1.5-1.5-1.5H8.584c-0.828,0-1.5,0.672-1.5,1.5
	S7.756,61.554,8.584,61.554z"/>
<path d="M8.543,73.639h19.349c0.828,0,1.5-0.672,1.5-1.5s-0.672-1.5-1.5-1.5H8.543c-0.828,0-1.5,0.672-1.5,1.5
	S7.715,73.639,8.543,73.639z"/>
<path d="M41.372,82.723H8.584c-0.828,0-1.5,0.672-1.5,1.5s0.672,1.5,1.5,1.5h32.788c0.828,0,1.5-0.672,1.5-1.5
	S42.2,82.723,41.372,82.723z"/>
<path d="M76.947,58.554h-5.56L59.139,28.941c-0.231-0.561-0.778-0.927-1.386-0.927c-16.996,0-21.75-15.796-21.943-16.466
	c-0.146-0.512-0.551-0.907-1.065-1.041c-0.516-0.133-1.061,0.015-1.438,0.392L14.251,29.955l-5.818,5.448
	c-0.297,0.278-0.469,0.665-0.475,1.072s0.154,0.8,0.442,1.087l48.026,47.722c0.281,0.279,0.661,0.436,1.058,0.436H93.33
	c0.828,0,1.5-0.672,1.5-1.5v-7.781C94.831,66.576,86.809,58.554,76.947,58.554z M33.794,14.654
	c2.128,4.866,8.517,15.85,22.95,16.342l2.431,5.879h-8.124c-0.828,0-1.5,0.672-1.5,1.5s0.672,1.5,1.5,1.5h9.158
	c0.068,0,0.133-0.011,0.198-0.02l2.016,4.875h-8.716c-0.828,0-1.5,0.672-1.5,1.5s0.672,1.5,1.5,1.5h9.158
	c0.262,0,0.505-0.073,0.719-0.192l2.087,5.045h-8.596c-0.828,0-1.5,0.672-1.5,1.5s0.672,1.5,1.5,1.5h9.159
	c0.222,0,0.431-0.051,0.621-0.138l2.143,5.182c0.231,0.561,0.778,0.927,1.386,0.927h6.562c7.7,0,14.052,5.878,14.808,13.382
	L61.58,74.899L17.416,31.032L33.794,14.654z M91.831,82.719H58.103L11.619,36.53l3.643-3.41l44.644,44.343
	c0.28,0.278,0.659,0.435,1.055,0.436l30.871,0.038L91.831,82.719L91.831,82.719z"/>
</svg>
